<?xml version="1.0" standalone="no"?>
<!DOCTYPE svg PUBLIC "-//W3C//DTD SVG 20010904//EN"
 "http://www.w3.org/TR/2001/REC-SVG-20010904/DTD/svg10.dtd">
<svg version="1.0" xmlns="http://www.w3.org/2000/svg"
 width="834.000000pt" height="1280.000000pt" viewBox="0 0 834.000000 1280.000000"
 preserveAspectRatio="xMidYMid meet">
<metadata>
Created by potrace 1.15, written by Peter Selinger 2001-2017
</metadata>
<g transform="translate(0.000000,1280.000000) scale(0.100000,-0.100000)"
fill="#000000" stroke="none">
<path d="M4481 12423 c-72 -38 -155 -114 -180 -166 -23 -47 -28 -128 -11 -171
7 -19 6 -24 -3 -20 -7 2 -18 -10 -26 -27 -16 -37 -93 -88 -135 -91 -20 -1 -13
-3 19 -7 28 -3 -120 -4 -327 -2 -539 5 -885 -11 -1428 -70 -437 -46 -504 -52
-450 -40 29 7 31 9 10 10 -22 1 -89 23 -145 46 -18 8 -19 7 -5 -10 8 -11 -17
8 -55 43 -99 88 -174 142 -294 214 -162 96 -469 248 -503 248 -42 0 -78 -40
-78 -87 0 -21 9 -108 20 -193 53 -415 73 -785 51 -938 -16 -107 -56 -270 -136
-551 -65 -231 -90 -344 -80 -361 8 -13 -36 -18 -285 -30 -123 -7 -232 -16
-243 -21 -25 -14 -39 -54 -28 -82 19 -49 22 -49 304 -42 l264 8 13 -69 c7 -38
21 -98 32 -132 11 -35 18 -65 16 -67 -2 -1 -82 -19 -178 -39 -96 -20 -210 -44
-254 -53 -86 -18 -116 -40 -116 -84 0 -33 34 -69 66 -69 12 0 134 22 271 50
136 27 254 50 260 50 7 0 26 -27 43 -60 17 -33 46 -85 66 -116 20 -31 34 -57
32 -58 -12 -11 -73 -35 -308 -125 -376 -144 -369 -141 -385 -165 -33 -46 -2
-106 54 -106 15 0 75 18 132 39 57 22 217 82 356 134 l251 95 94 -92 c212
-206 499 -363 818 -447 97 -25 263 -53 470 -79 156 -19 250 -37 206 -39 -14
-1 -7 -9 25 -31 51 -33 84 -85 99 -157 9 -42 8 -70 -9 -160 -78 -409 -268
-964 -533 -1548 -112 -247 -479 -1017 -598 -1256 -273 -544 -398 -979 -472
-1639 -16 -147 -16 -806 1 -1135 26 -510 72 -797 175 -1080 14 -38 18 -61 10
-51 -14 19 -14 19 -14 -5 0 -60 -79 -128 -152 -130 -28 0 -30 -2 -13 -10 14
-7 5 -8 -30 -4 -248 28 -348 29 -475 3 -140 -27 -242 -117 -292 -256 -31 -86
-29 -232 5 -331 45 -129 146 -255 239 -299 92 -43 166 -48 335 -24 167 24 259
27 379 12 237 -29 952 -102 1179 -119 138 -11 258 -23 425 -41 201 -22 613
-32 885 -21 259 11 573 32 775 51 52 6 190 17 305 25 116 9 298 27 405 41 107
13 247 31 310 39 63 8 197 20 297 27 178 11 183 11 275 -12 160 -41 288 -28
422 43 131 70 238 220 252 355 23 217 -141 465 -343 517 -73 19 -210 19 -337
0 -110 -17 -130 -18 -101 -5 15 6 7 9 -30 9 -63 1 -133 35 -157 76 -33 59 -30
115 12 238 21 61 39 105 39 97 1 -14 55 57 56 72 0 4 24 24 53 43 123 83 300
291 417 489 211 359 307 635 406 1161 69 366 94 658 85 990 -10 368 -46 611
-126 855 -31 94 -50 131 -129 255 -122 188 -153 244 -145 256 4 7 3 9 -3 6
-15 -9 -36 47 -28 75 5 19 4 20 -5 8 -9 -12 -10 -8 -6 20 3 20 2 30 -2 22 -15
-22 -34 152 -34 302 0 289 68 496 250 770 181 271 400 594 421 623 13 18 29
29 34 26 6 -3 7 -2 4 4 -8 12 39 78 56 78 7 1 11 7 9 14 -3 16 17 43 27 36 4
-2 8 2 8 8 0 7 47 73 104 147 202 259 305 414 382 573 137 281 194 610 169
971 -44 621 -221 1145 -523 1551 -200 269 -469 517 -795 733 -88 59 -169 113
-180 120 -16 10 -15 11 5 1 22 -10 20 -6 -12 31 -20 24 -37 48 -37 54 0 6 -5
4 -11 -4 -7 -10 -8 9 -3 66 6 75 5 82 -17 106 -35 38 -68 42 -120 13 -79 -45
-144 -76 -125 -60 18 14 15 15 -50 15 -38 0 -80 3 -94 6 -21 5 -22 4 -10 -6
13 -11 13 -11 0 -7 -8 2 -47 13 -87 23 -39 10 -69 22 -66 28 4 5 1 6 -6 2 -7
-5 -33 -5 -58 -1 -35 5 -43 9 -32 17 10 7 8 8 -8 3 -13 -3 -44 -3 -70 1 -39 6
-44 9 -28 16 14 6 8 7 -17 3 -44 -7 -150 5 -126 14 10 3 -15 6 -55 6 -40 1
-139 9 -222 18 -85 10 -267 20 -420 23 l-270 5 -54 -28z m2081 -1150 c24 -9
57 -26 74 -39 17 -13 34 -20 38 -17 9 10 76 -58 69 -70 -3 -6 -2 -7 4 -4 11 7
100 -82 188 -188 213 -256 360 -610 435 -1046 78 -457 33 -778 -154 -1092 -70
-118 -149 -227 -326 -447 -178 -223 -220 -282 -442 -615 -261 -394 -269 -406
-332 -534 -116 -231 -166 -431 -182 -721 -11 -205 30 -523 85 -659 37 -92 136
-270 216 -391 49 -73 71 -118 94 -195 82 -268 108 -678 70 -1085 -22 -239 -98
-664 -110 -619 -5 15 -7 18 -8 7 -2 -34 -63 -149 -87 -164 -47 -31 -89 5 -107
91 -3 11 -6 -5 -7 -35 -3 -50 -4 -48 -11 30 -4 47 -7 146 -8 221 -1 172 -17
381 -37 484 -21 110 -96 399 -134 520 -127 399 -293 786 -704 1638 -325 674
-487 1055 -602 1408 -129 398 -136 421 -129 448 3 14 2 21 -2 15 -14 -21 -15
242 -1 288 14 48 95 138 125 139 16 0 16 1 -2 8 -25 10 3 15 255 41 399 41
588 88 835 205 197 93 317 176 453 313 l83 83 37 -12 c20 -6 172 -63 337 -126
165 -63 312 -114 328 -115 61 -2 91 77 45 119 -13 11 -133 61 -268 112 -135
52 -277 107 -317 123 l-72 29 35 59 c19 33 47 88 63 124 l29 64 69 -13 c37 -7
154 -30 260 -51 158 -32 195 -36 217 -26 43 19 48 100 7 121 -10 6 -125 33
-256 60 -131 28 -240 52 -242 55 -2 2 3 32 10 67 8 35 20 96 26 134 l12 70
162 -6 c315 -13 364 -12 388 12 27 27 22 76 -11 100 -21 15 -60 20 -245 29
-310 15 -279 4 -292 103 -7 45 -36 190 -66 322 -59 256 -82 376 -91 465 -4 38
-3 47 3 30 9 -24 9 -24 10 7 2 55 29 110 64 127 41 20 67 20 119 -1z m84 -25
l29 -33 -32 29 c-18 17 -33 31 -33 33 0 8 8 1 36 -29z m-3829 -2800 c-3 -7 -5
-2 -5 12 0 14 2 19 5 13 2 -7 2 -19 0 -25z m1610 -125 c-3 -10 -5 -2 -5 17 0
19 2 27 5 18 2 -10 2 -26 0 -35z m10 -70 c-3 -10 -5 -2 -5 17 0 19 2 27 5 18
2 -10 2 -26 0 -35z m1850 -4755 c-3 -8 -6 -5 -6 6 -1 11 2 17 5 13 3 -3 4 -12
1 -19z m-406 -1885 c-12 -20 -14 -14 -5 12 4 9 9 14 11 11 3 -2 0 -13 -6 -23z"/>
<path d="M6291 3594 c0 -11 3 -14 6 -6 3 7 2 16 -1 19 -3 4 -6 -2 -5 -13z"/>
<path d="M5563 12393 c9 -2 23 -2 30 0 6 3 -1 5 -18 5 -16 0 -22 -2 -12 -5z"/>
<path d="M5698 12373 c7 -3 16 -2 19 1 4 3 -2 6 -13 5 -11 0 -14 -3 -6 -6z"/>
<path d="M6560 6045 c0 -5 5 -17 10 -25 5 -8 10 -10 10 -5 0 6 -5 17 -10 25
-5 8 -10 11 -10 5z"/>
</g>
</svg>
